<svg width="30" height="32" viewBox="0 0 30 32" fill="none" xmlns="http://www.w3.org/2000/svg">
<mask id="mask0" mask-type="alpha" maskUnits="userSpaceOnUse" x="6" y="6" width="18" height="20">
<path fill-rule="evenodd" clip-rule="evenodd" d="M18 15.3546V9.19365L15 6.11318L12 9.19365V11.2473H6V25.6228H24V15.3546H18ZM10 23.5692H8V21.5155H10V23.5692ZM10 19.4619H8V17.4082H10V19.4619ZM10 15.3546H8V13.3009H10V15.3546ZM16 23.5692H14V21.5155H16V23.5692ZM16 19.4619H14V17.4082H16V19.4619ZM16 15.3546H14V13.3009H16V15.3546ZM16 11.2473H14V9.19365H16V11.2473ZM22 23.5692H20V21.5155H22V23.5692ZM22 19.4619H20V17.4082H22V19.4619Z" fill="white"/>
</mask>
<g mask="url(#mask0)">
<rect x="2" y="3.03271" width="26" height="26.6974" fill="#D8D8D8"/>
</g>
</svg>
