<svg width="30" height="30" viewBox="0 0 30 30" fill="none" xmlns="http://www.w3.org/2000/svg">
<mask id="mask0" mask-type="alpha" maskUnits="userSpaceOnUse" x="6" y="5" width="18" height="20">
<path fill-rule="evenodd" clip-rule="evenodd" d="M22 7H21V5H19V7H11V5H9V7H8C6.89 7 6.01 7.9 6.01 9L6 23C6 24.1 6.89 25 8 25H22C23.1 25 24 24.1 24 23V9C24 7.9 23.1 7 22 7ZM22 23H8V12H22V23ZM10 14H15V19H10V14Z" fill="white"/>
</mask>
<g mask="url(#mask0)">
<rect x="2" y="2" width="26" height="26" fill="#D8D8D8"/>
</g>
</svg>
