<svg width="30" height="32" viewBox="0 0 30 32" fill="none" xmlns="http://www.w3.org/2000/svg">
<mask id="mask0" mask-type="alpha" maskUnits="userSpaceOnUse" x="6" y="6" width="18" height="19">
<path fill-rule="evenodd" clip-rule="evenodd" d="M15 6.66638C10.03 6.66638 6 10.7689 6 15.8284C6 20.8879 10.03 24.9905 15 24.9905C15.83 24.9905 16.5 24.3084 16.5 23.4635C16.5 23.0665 16.35 22.7101 16.11 22.4353C15.88 22.1706 15.73 21.8143 15.73 21.4275C15.73 20.5825 16.4 19.9005 17.23 19.9005H19C21.76 19.9005 24 17.6201 24 14.8104C24 10.3108 19.97 6.66638 15 6.66638ZM9.5 15.8284C8.67 15.8284 8 15.1464 8 14.3014C8 13.4565 8.67 12.7744 9.5 12.7744C10.33 12.7744 11 13.4565 11 14.3014C11 15.1464 10.33 15.8284 9.5 15.8284ZM12.5 11.7564C11.67 11.7564 11 11.0743 11 10.2294C11 9.38446 11.67 8.70239 12.5 8.70239C13.33 8.70239 14 9.38446 14 10.2294C14 11.0743 13.33 11.7564 12.5 11.7564ZM17.5 11.7564C16.67 11.7564 16 11.0743 16 10.2294C16 9.38446 16.67 8.70239 17.5 8.70239C18.33 8.70239 19 9.38446 19 10.2294C19 11.0743 18.33 11.7564 17.5 11.7564ZM20.5 15.8284C19.67 15.8284 19 15.1464 19 14.3014C19 13.4565 19.67 12.7744 20.5 12.7744C21.33 12.7744 22 13.4565 22 14.3014C22 15.1464 21.33 15.8284 20.5 15.8284Z" fill="white"/>
</mask>
<g mask="url(#mask0)">
<rect x="2" y="2.59436" width="26" height="26.4681" fill="#D8D8D8"/>
</g>
</svg>
