<svg width="30" height="31" viewBox="0 0 30 31" fill="none" xmlns="http://www.w3.org/2000/svg">
<mask id="mask0" mask-type="alpha" maskUnits="userSpaceOnUse" x="6" y="5" width="18" height="21">
<path fill-rule="evenodd" clip-rule="evenodd" d="M21 19.4234C20.24 19.4234 19.56 19.7288 19.04 20.2072L11.91 15.9825C11.96 15.7484 12 15.5142 12 15.2699C12 15.0256 11.96 14.7914 11.91 14.5573L18.96 10.3733C19.5 10.8823 20.21 11.1979 21 11.1979C22.66 11.1979 24 9.83375 24 8.14386C24 6.45397 22.66 5.08984 21 5.08984C19.34 5.08984 18 6.45397 18 8.14386C18 8.38818 18.04 8.62232 18.09 8.85646L11.04 13.0405C10.5 12.5315 9.79 12.2159 9 12.2159C7.34 12.2159 6 13.58 6 15.2699C6 16.9598 7.34 18.3239 9 18.3239C9.79 18.3239 10.5 18.0083 11.04 17.4993L18.16 21.7342C18.11 21.948 18.08 22.172 18.08 22.3959C18.08 24.0349 19.39 25.3685 21 25.3685C22.61 25.3685 23.92 24.0349 23.92 22.3959C23.92 20.757 22.61 19.4234 21 19.4234Z" fill="white"/>
</mask>
<g mask="url(#mask0)">
<rect x="2" y="2.03613" width="26" height="26.4681" fill="#D8D8D8"/>
</g>
</svg>
