<svg width="30" height="32" viewBox="0 0 30 32" fill="none" xmlns="http://www.w3.org/2000/svg">
<mask id="mask0" mask-type="alpha" maskUnits="userSpaceOnUse" x="6" y="6" width="18" height="19">
<path fill-rule="evenodd" clip-rule="evenodd" d="M18.5 17.8646H17.71L17.43 17.5897C18.41 16.4292 19 14.9225 19 13.2835C19 9.6289 16.09 6.6665 12.5 6.6665C8.91 6.6665 6 9.6289 6 13.2835C6 16.9382 8.91 19.9006 12.5 19.9006C14.11 19.9006 15.59 19.3 16.73 18.3023L17 18.5873V19.3916L22 24.4714L23.49 22.9546L18.5 17.8646ZM12.5 17.8646C10.01 17.8646 8 15.8184 8 13.2835C8 10.7487 10.01 8.70251 12.5 8.70251C14.99 8.70251 17 10.7487 17 13.2835C17 15.8184 14.99 17.8646 12.5 17.8646Z" fill="white"/>
</mask>
<g mask="url(#mask0)">
<rect x="2" y="2.59473" width="26" height="26.4681" fill="#D8D8D8"/>
</g>
</svg>
