<svg width="30" height="30" viewBox="0 0 30 30" fill="none" xmlns="http://www.w3.org/2000/svg">
<mask id="mask0" mask-type="alpha" maskUnits="userSpaceOnUse" x="5" y="6" width="20" height="18">
<path fill-rule="evenodd" clip-rule="evenodd" d="M10.17 8L12 6H18L19.83 8H23C24.1 8 25 8.9 25 10V22C25 23.1 24.1 24 23 24H7C5.9 24 5 23.1 5 22V10C5 8.9 5.9 8 7 8H10.17ZM10 16C10 18.76 12.24 21 15 21C17.76 21 20 18.76 20 16C20 13.24 17.76 11 15 11C12.24 11 10 13.24 10 16Z" fill="white"/>
</mask>
<g mask="url(#mask0)">
<rect x="2" y="2" width="26" height="26" fill="#D8D8D8"/>
</g>
</svg>
